<?xml version="1.0" encoding="utf-8"?>
<!-- Generator: Adobe Illustrator 18.1.1, SVG Export Plug-In . SVG Version: 6.00 Build 0)  -->
<svg version="1.1" id="Layer_1" xmlns="http://www.w3.org/2000/svg" xmlns:xlink="http://www.w3.org/1999/xlink" x="0px" y="0px"
	 viewBox="0 0 229.9 215.9" enable-background="new 0 0 229.9 215.9" xml:space="preserve">
<g>
	<path fill="#61584C" d="M166.9,184.9H66.7c-16.4,0-29.7-13.4-29.7-29.7V55c0-16.4,13.4-29.7,29.7-29.7h100.2
		c16.4,0,29.7,13.4,29.7,29.7v100.2C196.6,171.5,183.3,184.9,166.9,184.9z"/>
	<g>
		<path fill="#FFFEF9" d="M134.6,89.1v-0.2c4.9-1.9,10.9-7.9,10.9-15.8c0-14.6-11.3-20.4-22.2-20.4H89.4c-2.4,0-3.1,0.8-3.1,2.8v3.9
			c0,2.2,1,2.8,3.5,2.8c3.5,0,4.7,1,4.7,3.9v52c0,2.8-1.1,3.9-4.7,3.9c-2.6,0-3.5,0.6-3.5,2.8v3.9c0,2,0.7,2.8,3.1,2.8h32.5
			c14.6,0,27.8-5.4,27.8-22.2C149.6,95,140.3,91.2,134.6,89.1z M107.3,62.6h12.3c6.8,0,12.7,4.7,12.7,10.9c0,7.2-5,11.7-13.5,11.7
			h-11.5V62.6z M120.4,121.4h-13V94.9h12.1c10.2,0,17.1,5.1,17.1,13.4C136.5,114.9,129.2,121.4,120.4,121.4z"/>
		<g>
			<g>
				<path fill="#FFFEF9" stroke="#FFFEF9" stroke-width="2.4791" stroke-miterlimit="10" d="M88.4,144.1H145c0.9,0,1.6-0.7,1.6-1.7
					s-0.7-1.7-1.6-1.7H88.4c-0.9,0-1.6,0.7-1.6,1.7C86.8,143.4,87.5,144.1,88.4,144.1z"/>
			</g>
			<g>
				<path fill="#FFFEF9" d="M154.8,149.3l-3.5-6c-0.3-0.5-0.3-1.2,0-1.7l3.5-6c0.5-0.8,1.4-1,2.2-0.6l10.5,6
					c0.5,0.3,0.8,0.9,0.8,1.5c0,0.6-0.3,1.2-0.8,1.5l-10.5,6c-0.2,0.1-0.5,0.2-0.8,0.2C155.6,150.1,155.1,149.8,154.8,149.3z
					 M156.8,138.7l-2.2,3.8l2.2,3.8l6.6-3.8L156.8,138.7z"/>
			</g>
			<g>
				<path fill="#FFFEF9" d="M65.3,148c0-0.4,0.1-0.8,0.4-1.1l3.4-4.4l-3.4-4.5c-0.4-0.5-0.5-1.2-0.2-1.7c0.3-0.6,0.8-0.9,1.5-0.9
					h9.4c0.5,0,1,0.2,1.3,0.6l4.2,5.5c0.5,0.6,0.5,1.4,0,2l-4.2,5.5c-0.3,0.4-0.8,0.6-1.3,0.6H67c0,0,0,0,0,0
					C66.1,149.6,65.3,148.9,65.3,148z M78.5,142.5l-2.9-3.9h-5.3l2.1,2.8c0.5,0.6,0.5,1.4,0,2l-2.1,2.8h5.3L78.5,142.5z"/>
			</g>
			<polygon fill="#FFFEF9" points="155.8,137.2 152.9,142.6 155.9,147.8 166.9,142.1 			"/>
			<polygon fill="#FFFEF9" points="69.2,137.6 76.3,137.6 80,143.4 75.5,148.4 67.1,148.3 71.4,142.7 			"/>
		</g>
	</g>
</g>
</svg>
