<?xml version="1.0" encoding="utf-8"?>
<!-- Generator: Adobe Illustrator 18.1.1, SVG Export Plug-In . SVG Version: 6.00 Build 0)  -->
<svg version="1.1" id="Layer_1" xmlns="http://www.w3.org/2000/svg" xmlns:xlink="http://www.w3.org/1999/xlink" x="0px" y="0px"
	 viewBox="0 0 64.3 63" enable-background="new 0 0 64.3 63" xml:space="preserve">
<g>
	<path fill="#62594D" d="M51.2,1.5H13.7c-6.2,0-11.3,5-11.3,11.3v37.6c0,6.2,5,11.3,11.3,11.3h37.6c6.2,0,11.3-5,11.3-11.3V12.7
		C62.5,6.5,57.5,1.5,51.2,1.5L51.2,1.5z M40.2,31.5h-4.9v18h-6.8v-18H24v-6.2l4.5,0l0-3.6c0-5.1,1.4-8.2,7.4-8.2h5v6.2h-3.1
		c-2.3,0-2.4,0.9-2.4,2.5v3.1h5.6L40.2,31.5z M40.2,31.5"/>
</g>
<g>
	<path fill="#62594D" d="M-322.6,580.4H-363c-6.6,0-12-5.4-12-12V528c0-6.6,5.4-12,12-12h40.4c6.6,0,12,5.4,12,12v40.4
		C-310.6,575-316,580.4-322.6,580.4z"/>
	<g>
		<path fill="#FFFFF9" d="M-335.6,541.8L-335.6,541.8c2-0.8,4.4-3.3,4.4-6.5c0-5.9-4.5-8.2-9-8.2h-13.7c-1,0-1.3,0.3-1.3,1.1v1.6
			c0,0.9,0.4,1.1,1.4,1.1c1.4,0,1.9,0.4,1.9,1.6v21c0,1.1-0.5,1.6-1.9,1.6c-1,0-1.4,0.2-1.4,1.1v1.6c0,0.8,0.3,1.1,1.3,1.1h13.1
			c5.9,0,11.2-2.2,11.2-9C-329.5,544.2-333.3,542.6-335.6,541.8z M-346.6,531.1h5c2.7,0,5.1,1.9,5.1,4.4c0,2.9-2,4.7-5.5,4.7h-4.6
			V531.1z M-341.3,554.8h-5.3v-10.7h4.9c4.1,0,6.9,2.1,6.9,5.4C-334.8,552.2-337.7,554.8-341.3,554.8z"/>
		<g>
			<g>
				<path fill="#FFFFF9" stroke="#FFFFF9" stroke-miterlimit="10" d="M-354.2,564h22.8c0.4,0,0.7-0.3,0.7-0.7s-0.3-0.7-0.7-0.7
					h-22.8c-0.4,0-0.7,0.3-0.7,0.7C-354.9,563.7-354.6,564-354.2,564z"/>
			</g>
			<g>
				<path fill="#FFFFF9" d="M-327.4,566.1l-1.4-2.4c-0.1-0.2-0.1-0.5,0-0.7l1.4-2.4c0.2-0.3,0.6-0.4,0.9-0.2l4.2,2.4
					c0.2,0.1,0.3,0.3,0.3,0.6c0,0.2-0.1,0.5-0.3,0.6l-4.2,2.4c-0.1,0.1-0.2,0.1-0.3,0.1C-327.1,566.4-327.3,566.3-327.4,566.1z
					 M-326.6,561.8l-0.9,1.5l0.9,1.5l2.7-1.5L-326.6,561.8z"/>
			</g>
			<g>
				<path fill="#FFFFF9" d="M-363.5,565.5c0-0.2,0.1-0.3,0.2-0.4l1.4-1.8l-1.4-1.8c-0.2-0.2-0.2-0.5-0.1-0.7
					c0.1-0.2,0.3-0.4,0.6-0.4h3.8c0.2,0,0.4,0.1,0.5,0.3l1.7,2.2c0.2,0.2,0.2,0.6,0,0.8l-1.7,2.2c-0.1,0.2-0.3,0.3-0.5,0.3h-3.8
					c0,0,0,0,0,0C-363.2,566.2-363.5,565.9-363.5,565.5z M-358.2,563.3l-1.2-1.6h-2.1l0.9,1.1c0.2,0.2,0.2,0.6,0,0.8l-0.9,1.1h2.1
					L-358.2,563.3z"/>
			</g>
			<polygon fill="#FFFFF9" points="-327,561.2 -328.2,563.3 -327,565.4 -322.6,563.2 			"/>
			<polygon fill="#FFFFF9" points="-362,561.3 -359.1,561.3 -357.6,563.7 -359.4,565.7 -362.8,565.7 -361.1,563.4 			"/>
		</g>
	</g>
</g>
</svg>
